/* XPM */
static char *bitcoin16[] = {
/* columns rows colors chars-per-pixel */
"16 16 51 1 ",
"  c None",
". c #A4A4A4",
"X c #A5A5A5",
"o c gray65",
"O c #A7A7A7",
"+ c gray66",
"@ c #A9A9A9",
"# c #AAAAAA",
"$ c gray67",
"% c gray68",
"& c #AEAEAE",
"* c #AFAFAF",
"= c gray69",
"- c #B1B1B1",
"; c #B2B2B2",
": c gray70",
"> c #B6B6B6",
", c #B9B9B9",
"< c gray73",
"1 c #C0C0C0",
"2 c #C1C1C1",
"3 c gray76",
"4 c gray77",
"5 c #C8C8C8",
"6 c gray79",
"7 c #CACACA",
"8 c #CBCBCB",
"9 c gray80",
"0 c #CECECE",
"q c gray81",
"w c #D0D0D0",
"e c gray82",
"r c #D2D2D2",
"t c LightGray",
"y c gray83",
"u c #D5D5D5",
"i c gray84",
"p c #D7D7D7",
"a c #D8D8D8",
"s c gray85",
"d c gray86",
"f c gainsboro",
"g c #DDDDDD",
"h c gray87",
"j c #DFDFDF",
"k c #E1E1E1",
"l c #E2E2E2",
"z c gray89",
"x c #E7E7E7",
"c c #EAEAEA",
"v c #EEEEEE",
/* pixels */
"     oooooo     ",
"   oooooooooo   ",
"  oooooOoooooo  ",
" oo@ede0qayi*Xo ",
" oo&c0:*7zad+oo ",
"ooX;6oX%k7l:Xooo",
"ooo$%Xowus6Xoooo",
"oooooX,l8h#ooooo",
"ooooo#g9k<Xooooo",
"ooooX5dyrooo@Ooo",
"oooX;l7l&Xoo2$oo",
" ooOiwh3.X.>p+o ",
" oX1xyj=&-2vgoo ",
"  O8ddiqwtfk4X  ",
"   OOOOOOOOoo   ",
"     oooooo     "
};
