/* XPM */
static char *bitcoin64[] = {
/* columns rows colors chars-per-pixel */
"64 64 88 1 ",
"  c None",
". c #A4A4A4",
"X c #A5A5A5",
"o c gray65",
"O c #A7A7A7",
"+ c gray66",
"@ c #A9A9A9",
"# c #AAAAAA",
"$ c gray67",
"% c #ACACAC",
"& c gray68",
"* c #AEAEAE",
"= c #AFAFAF",
"- c gray69",
"; c #B1B1B1",
": c #B2B2B2",
"> c gray70",
", c #B4B4B4",
"< c gray71",
"1 c #B6B6B6",
"2 c #B7B7B7",
"3 c gray72",
"4 c #B9B9B9",
"5 c gray73",
"6 c #BBBBBB",
"7 c #BCBCBC",
"8 c gray74",
"9 c gray",
"0 c #C1C1C1",
"q c gray76",
"w c #C3C3C3",
"e c gray77",
"r c #C5C5C5",
"t c #C6C6C6",
"y c #C8C8C8",
"u c gray79",
"i c #CACACA",
"p c #CBCBCB",
"a c gray80",
"s c #CDCDCD",
"d c #CECECE",
"f c gray81",
"g c #D0D0D0",
"h c gray82",
"j c #D2D2D2",
"k c LightGray",
"l c gray83",
"z c #D5D5D5",
"x c gray84",
"c c #D7D7D7",
"v c #D8D8D8",
"b c #DADADA",
"n c gray86",
"m c gainsboro",
"M c #DDDDDD",
"N c gray87",
"B c #DFDFDF",
"V c gray88",
"C c #E2E2E2",
"Z c gray89",
"A c #E4E4E4",
"S c gray90",
"D c #E6E6E6",
"F c #E7E7E7",
"G c gray91",
"H c #E9E9E9",
"J c #EAEAEA",
"K c gray92",
"L c #ECECEC",
"P c gray93",
"I c #EEEEEE",
"U c #EFEFEF",
"Y c gray94",
"T c #F1F1F1",
"R c gray95",
"E c #F3F3F3",
"W c #F4F4F4",
"Q c gray96",
"! c #F6F6F6",
"~ c gray97",
"^ c #F8F8F8",
"/ c #F9F9F9",
"( c gray98",
") c #FBFBFB",
"_ c gray99",
"` c #FDFDFD",
"' c #FEFEFE",
"] c white",
/* pixels */
"                          oooooooooooo                          ",
"                      oooooooooooooooooooo                      ",
"                    oooooooooooooooooooooooo                    ",
"                 oooooooooooooooooooooooooooooo                 ",
"                oooooooooooooooooooooooooooooooo                ",
"              oooooooooooooooooooooooooooooooooooo              ",
"             oooooooooooooooooooooooooooooooooooooo             ",
"           oooooooooooooooooooooooooooooooooooooooooo           ",
"          oooooooooooooooooooooooooooooooooooooooooooo          ",
"         oooooooooooooooooooooooooooooooooooooooooooooo         ",
"        oooooooooooooooooooooooooooooooooooooooooooooooo        ",
"       oooooooooooooooooooooooooooooooooooooooooooooooooo       ",
"       ooooooooooXXXXXXXXXXXXXXXXXXXXXXXXXXXXXXXXoooooooo       ",
"      oooooooooX,dffffffffffffffffffffffffffffffi$oooooooo      ",
"     ooooooooooXu]]]]]]]]]]]]]]]]]]]]]]]]]]]]]]]b+ooooooooo     ",
"     ooooooooooXg]]]]]]]'!UKHGGGGGGG!]]]~EE~]]]Y>Xooooooooo     ",
"    oooooooooooXc]]]]]^Br<&$######@<T]]E6-;m]]`yXooooooooooo    ",
"   ooooooooooooON]]]'C5+XXooooooooOc]]'aX.5~]]C#ooooooooooooo   ",
"   oooooooooooo+S]]_k$XooooooooooX9/]]S$X$S]]!4Xooooooooooooo   ",
"   oooooooooooo$K]'l+XooooooooooX&G]]^7XXp`]]hooooooooooooooo   ",
"  ooooooooooooX*Y]S%Xooooooooooood']]zOX<R]]J*Xooooooooooooooo  ",
"  ooooooooooooX:Q(7XoooooooooooX2W]]P-X+m]](0Xoooooooooooooooo  ",
" oooooooooooooX2(C+oooooooooooo@B]])eXXw)]]n+oooooooooooooooooo ",
" oooooooooooooX8(rXoooooooooooXr_]]M+X=L]]T>Xoooooooooooooooooo ",
" oooooooooooooXrE:XooooooooooX;I]]E<Xol]]`iXooooooooooooooooooo ",
" oooooooooooooX6a+oooooooooooOx]]'aXX6~]]Z$oooooooooooooooooooo ",
"ooooooooooooooooooooooooooooX8^]]S$X$S]]~5Xooooooooooooooooooooo",
"oooooooooooooooooooooooooooo%D]]^7XXp`]]kooooooooooooooooooooooo",
"oooooooooooooooooooooooooooXs']]zOX<R]]K=Xoooooooooooooooooooooo",
"ooooooooooooooooooooooooooX1E]]P-X+m]])qXooooooooooooooooooooooo",
"oooooooooooooooooooooooooo@N]])eXXw)]]m+oooooooooooooooooooooooo",
"oooooooooooooooooooooooooXe)]]M+X=L]]R,Xoooooooooooooooooooooooo",
"ooooooooooooooooooooooooX-P]]E<Xol]]`pXooooooooooooooooooooooooo",
"ooooooooooooooooooooooooOz]]'aXX6~]]S$oooooooooooooooooooooooooo",
"oooooooooooooooooooooooX7^]]S$X$S]]~6Xoooooooooooooooooooooooooo",
"ooooooooooooooooooooooo$S]]^7XXp`]]loooooooooooooooooooooooooooo",
"ooooooooooooooooooooooXp']]zOX<R]]L=Xooooooooooooooooooooooooooo",
"oooooooooooooooooooooX<R]]P-X+m]])wXoooooooooooooooooooooooooooo",
" oooooooooooooooooooo+M]])eXXw)]]M+oooooooooooooooXXooooooooooo ",
" oooooooooooooooooooXw)]]M+X=L]]E<Xooooooooooooooo>>ooooooooooo ",
" ooooooooooooooooooX=L]]E<Xol]]'aXooooooooooooooo+CzXoooooooooo ",
" oooooooooooooooooook]]'aXX6~]]D%oooooooooooooooX;EdXoooooooooo ",
"  ooooooooooooooooX6~]]D%X$S]]^7XoooooooooooooooXw_rXooooooooo  ",
"  oooooooooooooooo$A]]^7XXp`]]zOooooooooooooooooOB_8Xooooooooo  ",
"   ooooooooooooooXi`]]zOX,R]]P-XoooooooooooooooX3~^1Xoooooooo   ",
"   oooooooooooooX,T]]P-X+m]]_rXoooooooooooooooo+m]E-Xoooooooo   ",
"   ooooooooooooo+n]])eXXw)]]N@ooooooooooooooooXe)]P%ooooooooo   ",
"    oooooooooooX0(]]N@X=L]]W1XoooooooooooooooX4R]]S@oooooooo    ",
"     oooooooooX*K]]E<Xol]]'sooooooooooooooooX4I]]]Moooooooo     ",
"     ooooooooooj]]'aXX6~]]F%ooooooooooooooXOwT]]]]zXooooooo     ",
"      oooooooX4!]]S$X$A]]^8XoooooooooooXXO1b(]]]]]aXoooooo      ",
"       oooooo#Z]](t=-d`]]cOoooooooOO+#&<eM!]]]]]]'eXooooo       ",
"       oooooXu`]]`WEE)]]`SmmmmmmmMNVAHU~`]]]]]]]])7Xooooo       ",
"        oooX,R]]]]]]]]]]]]]]]]]]]]]]]]]]]]]]]]]]]^1Xoooo        ",
"         ooo0BBBBBBBBBBBBBBBBBBBBBBBBBBBBBBBBBBBVv&oooo         ",
"          ooOOOOOOOOOOOOOOOOOOOOOOOOOOOOOOOOOOOOOOoooo          ",
"           oooooooooooooooooooooooooooooooooooooooooo           ",
"             oooooooooooooooooooooooooooooooooooooo             ",
"              oooooooooooooooooooooooooooooooooooo              ",
"                oooooooooooooooooooooooooooooooo                ",
"                 oooooooooooooooooooooooooooooo                 ",
"                    oooooooooooooooooooooooo                    ",
"                      oooooooooooooooooooo                      ",
"                          oooooooooooo                          "
};
