/* XPM */
static char *bitcoin32[] = {
/* columns rows colors chars-per-pixel */
"32 32 80 1 ",
"  c None",
". c #A4A4A4",
"X c #A5A5A5",
"o c gray65",
"O c #A7A7A7",
"+ c gray66",
"@ c #A9A9A9",
"# c #AAAAAA",
"$ c gray67",
"% c #ACACAC",
"& c gray68",
"* c #AEAEAE",
"= c #AFAFAF",
"- c gray69",
"; c #B1B1B1",
": c #B2B2B2",
"> c gray70",
", c #B4B4B4",
"< c gray71",
"1 c #B6B6B6",
"2 c #B7B7B7",
"3 c gray72",
"4 c #B9B9B9",
"5 c gray73",
"6 c #BBBBBB",
"7 c #BCBCBC",
"8 c gray74",
"9 c gray",
"0 c gray75",
"q c #C0C0C0",
"w c #C1C1C1",
"e c gray76",
"r c #C3C3C3",
"t c gray77",
"y c #C6C6C6",
"u c gray78",
"i c #C8C8C8",
"p c #CACACA",
"a c #CBCBCB",
"s c gray80",
"d c #CDCDCD",
"f c #D0D0D0",
"g c gray82",
"h c #D2D2D2",
"j c gray83",
"k c #D5D5D5",
"l c #D7D7D7",
"z c #DADADA",
"x c gray86",
"c c gray87",
"v c #DFDFDF",
"b c #E1E1E1",
"n c gray89",
"m c #E4E4E4",
"M c #E6E6E6",
"N c #E7E7E7",
"B c gray91",
"V c #E9E9E9",
"C c #EAEAEA",
"Z c gray92",
"A c #ECECEC",
"S c gray93",
"D c #EEEEEE",
"F c #EFEFEF",
"G c gray94",
"H c #F1F1F1",
"J c gray95",
"K c #F3F3F3",
"L c #F4F4F4",
"P c gray96",
"I c #F6F6F6",
"U c gray97",
"Y c #F8F8F8",
"T c #F9F9F9",
"R c gray98",
"E c #FBFBFB",
"W c gray99",
"Q c #FDFDFD",
"! c #FEFEFE",
"~ c white",
/* pixels */
"            oooooooo            ",
"         oooooooooooooo         ",
"       oooooooooooooooooo       ",
"      oooooooooooooooooooo      ",
"     oooooooooooooooooooooo     ",
"    ooooXXXXXXXXXXXXXXXXXooo    ",
"   ooooo<999900000990099;oooo   ",
"  oooooOb!QWPDAAASTWKKWP4Xoooo  ",
"  ooooo@V~Kf1*&&%wRZ<k~joooooo  ",
" oooooo%FG3XXXoX#mE0,LS=Xoooooo ",
" oooooX;Fe.ooooXp!z#cWrXooooooo ",
" oooooX2c@ooooX>KJ;rQc+oooooooo ",
"ooooooX<eXooooOx!i=DL<Xooooooooo",
"oooooooOOooooXwWn#k!sXoooooooooo",
"ooooooooooooX*ZU36TM$ooooooooooo",
"oooooooooooooh~g$NT7Xooooooooooo",
"oooooooooooX4UZ&s!kooooooooooooo",
"ooooooooooo#nW0,PD-Xoooooooooooo",
"ooooooooooXi!z#cQtXooooooXoooooo",
"oooooooooX:JJ;rQv+ooooooO*Oooooo",
" ooooooooOz!i=DP1XoooooX=h@oooo ",
" oooooooXqEn#k~dXooooooXwzooooo ",
" ooooooX&CY36TB%ooooooo+bkXoooo ",
"  oooooof~g$NR8XooooooXiWaXooo  ",
"  ooooX3UC&s!loooooXX+iU!rXooo  ",
"   ooo@b!p5LH,@###%;qvE~E6Xoo   ",
"    oXuWQLU~IVVVVCDKW~~~U,Xo    ",
"     O6yyyyyyuuuuuuyyyyye#o     ",
"      X.................Xo      ",
"       oooooooooooooooooo       ",
"         oooooooooooooo         ",
"            oooooooo            "
};
